<svg xmlns="http://www.w3.org/2000/svg" xmlns:xlink="http://www.w3.org/1999/xlink" width="0" height="0"><symbol id="icon-avatar_green"><path d="M26.5 53C10.816 53 0 41.137 0 26.505 0 11.863 11.866 0 26.5 0 41.14 0 53 11.863 53 26.5S42.184 53 26.5 53zm-.003-49C14.07 4 4 13.964 4 26.254c0 5.749 2.22 10.97 5.84 14.92 3.26-1.56 2.062-.26 6.324-1.998 4.362-1.774 5.396-2.395 5.396-2.395l.042-4.09s-1.635-1.225-2.136-5.075c-1.023.292-1.361-1.18-1.424-2.113-.053-.902-.591-3.725.654-3.469-.253-1.883-.438-3.579-.348-4.481.31-3.156 3.413-6.458 8.186-6.698 5.618.24 7.844 3.537 8.155 6.698.09.902-.11 2.603-.364 4.481 1.245-.25.707 2.567.644 3.47-.053.933-.401 2.399-1.42 2.107-.51 3.85-2.146 5.065-2.146 5.065l.037 4.069s1.034.574 5.396 2.353c4.262 1.737 3.065.516 6.325 2.076C46.779 37.224 49 32.003 49 26.254 49 13.964 38.925 4 26.497 4z" fill-rule="nonzero"/></symbol><symbol id="icon-chat-bot"><path d="M19 38c-3.152 0-6.119-.772-8.732-2.129l-6.782 1.214-.023-7.158A18.899 18.899 0 0 1 0 19C0 8.507 8.507 0 19 0c10.497 0 19 8.507 19 19s-8.507 19-19 19zm.002-35C10.164 3 3 10.161 3 19c0 3.596 1.186 6.913 3.184 9.582v5l4.094-1.171A15.908 15.908 0 0 0 18.998 35C27.836 35 35 27.839 35 19S27.84 3 19.002 3zm11.777 21h-9.097v-1.755h-5.477V24h-8.98c-.97-4.002 1.507-7.543 1.507-7.543.853-1.423 2.25-2.529 3.924-3.317v-1.883c-.892-.282-1.545-1.083-1.545-2.061 0-1.214.993-2.196 2.222-2.196s2.226.982 2.226 2.196c0 .978-.657 1.779-1.55 2.06v1.338c3.123-1.067 6.875-1.11 10.01-.077v-1.26c-.893-.282-1.546-1.083-1.546-2.061 0-1.214.994-2.196 2.222-2.196 1.229 0 2.223.982 2.223 2.196 0 .978-.658 1.779-1.546 2.06v1.799c1.659.777 3.071 1.879 3.952 3.402-.004 0 2.402 3.545 1.455 7.543zM14 16c-1.106 0-2 .894-2 1.998 0 1.105.898 2.002 2 2.002 1.106 0 2-.894 2-2.002A1.998 1.998 0 0 0 14 16zm10 0c-1.106 0-2 .894-2 1.998 0 1.105.898 2.002 2 2.002 1.106 0 2-.894 2-2.002A1.998 1.998 0 0 0 24 16zm4.66 11.996S25.207 31.96 19.017 32c-6.186-.04-9.642-4.004-9.642-4.004A8.294 8.294 0 0 1 8 26h22a8.323 8.323 0 0 1-1.34 1.996z" fill-rule="nonzero"/></symbol><symbol id="icon-ic_account_circle"><path d="M10 0C4.48 0 0 4.48 0 10s4.48 10 10 10 10-4.48 10-10S15.52 0 10 0zm0 3c1.66 0 3 1.34 3 3s-1.34 3-3 3-3-1.34-3-3 1.34-3 3-3zm0 14.2a7.2 7.2 0 0 1-6-3.22c.03-1.99 4-3.08 6-3.08 1.99 0 5.97 1.09 6 3.08a7.2 7.2 0 0 1-6 3.22z" fill-rule="evenodd"/></symbol><symbol id="icon-ic_add_circle_outline"><path d="M11 5H9v4H5v2h4v4h2v-4h4V9h-4V5zm-1-5C4.48 0 0 4.48 0 10s4.48 10 10 10 10-4.48 10-10S15.52 0 10 0zm0 18c-4.41 0-8-3.59-8-8s3.59-8 8-8 8 3.59 8 8-3.59 8-8 8z" fill-rule="evenodd"/></symbol><symbol id="icon-ic_arrow_drop_down"><path d="M0 0l5 5 5-5z" fill-rule="evenodd"/></symbol><symbol id="icon-ic_chat"><path d="M18 0H2C.9 0 .01.9.01 2L0 20l4-4h14c1.1 0 2-.9 2-2V2c0-1.1-.9-2-2-2zM4 7h12v2H4V7zm8 5H4v-2h8v2zm4-6H4V4h12v2z" fill-rule="evenodd"/></symbol><symbol id="icon-ic_comment"><path d="M19.99 2c0-1.1-.89-2-1.99-2H2C.9 0 0 .9 0 2v12c0 1.1.9 2 2 2h14l4 4-.01-18zM16 12H4v-2h12v2zm0-3H4V7h12v2zm0-3H4V4h12v2z" fill-rule="evenodd"/></symbol><symbol id="icon-ic_file_download"><path d="M14 6h-4V0H4v6H0l7 7 7-7zM0 15v2h14v-2H0z" fill-rule="evenodd"/></symbol><symbol id="icon-ic_grade"><path d="M10 15.27L16.18 19l-1.64-7.03L20 7.24l-7.19-.61L10 0 7.19 6.63 0 7.24l5.46 4.73L3.82 19z" fill-rule="evenodd"/></symbol><symbol id="icon-ic_more_vert"><path d="M2 4c1.1 0 2-.9 2-2s-.9-2-2-2-2 .9-2 2 .9 2 2 2zm0 2C.9 6 0 6.9 0 8s.9 2 2 2 2-.9 2-2-.9-2-2-2zm0 6c-1.1 0-2 .9-2 2s.9 2 2 2 2-.9 2-2-.9-2-2-2z" fill-rule="evenodd"/></symbol><symbol id="icon-ic_send"><path d="M.01 18L21 9 .01 0 0 7l15 2-15 2z" fill-rule="evenodd"/></symbol><symbol id="icon-ic_settings"><path d="M15.95 10.78c.03-.25.05-.51.05-.78s-.02-.53-.06-.78l1.69-1.32c.15-.12.19-.34.1-.51l-1.6-2.77c-.1-.18-.31-.24-.49-.18l-1.99.8c-.42-.32-.86-.58-1.35-.78L12 2.34a.4.4 0 0 0-.4-.34H8.4c-.2 0-.36.14-.39.34l-.3 2.12c-.49.2-.94.47-1.35.78l-1.99-.8c-.18-.07-.39 0-.49.18l-1.6 2.77c-.1.18-.06.39.1.51l1.69 1.32c-.04.25-.07.52-.07.78s.02.53.06.78L2.37 12.1c-.15.12-.19.34-.1.51l1.6 2.77c.1.18.31.24.49.18l1.99-.8c.42.32.86.58 1.35.78l.3 2.12c.04.2.2.34.4.34h3.2c.2 0 .37-.14.39-.34l.3-2.12c.49-.2.94-.47 1.35-.78l1.99.8c.18.07.39 0 .49-.18l1.6-2.77c.1-.18.06-.39-.1-.51l-1.67-1.32zM10 13c-1.65 0-3-1.35-3-3s1.35-3 3-3 3 1.35 3 3-1.35 3-3 3z"/></symbol></svg>