<svg xmlns="http://www.w3.org/2000/svg" xmlns:xlink="http://www.w3.org/1999/xlink"><symbol id="icon-avatar_green"><path d="M26.5 53C10.816 53 0 41.137 0 26.505 0 11.863 11.866 0 26.5 0 41.14 0 53 11.863 53 26.5S42.184 53 26.5 53zm-.003-49C14.07 4 4 13.964 4 26.254c0 5.749 2.22 10.97 5.84 14.92 3.26-1.56 2.062-.26 6.324-1.998 4.362-1.774 5.396-2.395 5.396-2.395l.042-4.09s-1.635-1.225-2.136-5.075c-1.023.292-1.361-1.18-1.424-2.113-.053-.902-.591-3.725.654-3.469-.253-1.883-.438-3.579-.348-4.481.31-3.156 3.413-6.458 8.186-6.698 5.618.24 7.844 3.537 8.155 6.698.09.902-.11 2.603-.364 4.481 1.245-.25.707 2.567.644 3.47-.053.933-.401 2.399-1.42 2.107-.51 3.85-2.146 5.065-2.146 5.065l.037 4.069s1.034.574 5.396 2.353c4.262 1.737 3.065.516 6.325 2.076C46.779 37.224 49 32.003 49 26.254 49 13.964 38.925 4 26.497 4z" fill-rule="nonzero"/></symbol><symbol id="icon-chat-bot"><path d="M19 38c-3.152 0-6.119-.772-8.732-2.129l-6.782 1.214-.023-7.158A18.899 18.899 0 0 1 0 19C0 8.507 8.507 0 19 0c10.497 0 19 8.507 19 19s-8.507 19-19 19zm.002-35C10.164 3 3 10.161 3 19c0 3.596 1.186 6.913 3.184 9.582v5l4.094-1.171A15.908 15.908 0 0 0 18.998 35C27.836 35 35 27.839 35 19S27.84 3 19.002 3zm11.777 21h-9.097v-1.755h-5.477V24h-8.98c-.97-4.002 1.507-7.543 1.507-7.543.853-1.423 2.25-2.529 3.924-3.317v-1.883c-.892-.282-1.545-1.083-1.545-2.061 0-1.214.993-2.196 2.222-2.196s2.226.982 2.226 2.196c0 .978-.657 1.779-1.55 2.06v1.338c3.123-1.067 6.875-1.11 10.01-.077v-1.26c-.893-.282-1.546-1.083-1.546-2.061 0-1.214.994-2.196 2.222-2.196 1.229 0 2.223.982 2.223 2.196 0 .978-.658 1.779-1.546 2.06v1.799c1.659.777 3.071 1.879 3.952 3.402-.004 0 2.402 3.545 1.455 7.543zM14 16c-1.106 0-2 .894-2 1.998 0 1.105.898 2.002 2 2.002 1.106 0 2-.894 2-2.002A1.998 1.998 0 0 0 14 16zm10 0c-1.106 0-2 .894-2 1.998 0 1.105.898 2.002 2 2.002 1.106 0 2-.894 2-2.002A1.998 1.998 0 0 0 24 16zm4.66 11.996S25.207 31.96 19.017 32c-6.186-.04-9.642-4.004-9.642-4.004A8.294 8.294 0 0 1 8 26h22a8.323 8.323 0 0 1-1.34 1.996z" fill-rule="nonzero"/></symbol><symbol id="icon-ic_account_circle"><g fill-rule="evenodd"><path d="M10 0C4.48 0 0 4.48 0 10s4.48 10 10 10 10-4.48 10-10S15.52 0 10 0zm0 3c1.66 0 3 1.34 3 3s-1.34 3-3 3-3-1.34-3-3 1.34-3 3-3zm0 14.2a7.2 7.2 0 0 1-6-3.22c.03-1.99 4-3.08 6-3.08 1.99 0 5.97 1.09 6 3.08a7.2 7.2 0 0 1-6 3.22z"/><path d="M-2-2h24v24H-2z"/></g></symbol><symbol id="icon-ic_add_circle_outline"><g fill-rule="evenodd"><path d="M-2-2h24v24H-2z"/><path d="M11 5H9v4H5v2h4v4h2v-4h4V9h-4V5zm-1-5C4.48 0 0 4.48 0 10s4.48 10 10 10 10-4.48 10-10S15.52 0 10 0zm0 18c-4.41 0-8-3.59-8-8s3.59-8 8-8 8 3.59 8 8-3.59 8-8 8z"/></g></symbol><symbol id="icon-ic_arrow_drop_down"><g fill-rule="evenodd"><path d="M0 0l5 5 5-5z"/><path d="M-7-10h24v24H-7z"/></g></symbol><symbol id="icon-ic_chat"><g fill-rule="evenodd"><path d="M18 0H2C.9 0 .01.9.01 2L0 20l4-4h14c1.1 0 2-.9 2-2V2c0-1.1-.9-2-2-2zM4 7h12v2H4V7zm8 5H4v-2h8v2zm4-6H4V4h12v2z"/><path d="M-2-2h24v24H-2z"/></g></symbol><symbol id="icon-ic_comment"><g fill-rule="evenodd"><path d="M19.99 2c0-1.1-.89-2-1.99-2H2C.9 0 0 .9 0 2v12c0 1.1.9 2 2 2h14l4 4-.01-18zM16 12H4v-2h12v2zm0-3H4V7h12v2zm0-3H4V4h12v2z"/><path d="M-2-2h24v24H-2z"/></g></symbol><symbol id="icon-ic_file_download"><g fill-rule="evenodd"><path d="M14 6h-4V0H4v6H0l7 7 7-7zM0 15v2h14v-2H0z"/><path d="M-5-3h24v24H-5z"/></g></symbol><symbol id="icon-ic_grade"><g fill-rule="evenodd"><path d="M10 15.27L16.18 19l-1.64-7.03L20 7.24l-7.19-.61L10 0 7.19 6.63 0 7.24l5.46 4.73L3.82 19z"/><path d="M-2-2h24v24H-2z"/></g></symbol><symbol id="icon-ic_more_vert"><g fill-rule="evenodd"><path d="M-10-4h24v24h-24z"/><path d="M2 4c1.1 0 2-.9 2-2s-.9-2-2-2-2 .9-2 2 .9 2 2 2zm0 2C.9 6 0 6.9 0 8s.9 2 2 2 2-.9 2-2-.9-2-2-2zm0 6c-1.1 0-2 .9-2 2s.9 2 2 2 2-.9 2-2-.9-2-2-2z"/></g></symbol><symbol id="icon-ic_send"><g fill-rule="evenodd"><path d="M.01 18L21 9 .01 0 0 7l15 2-15 2z"/><path d="M-2-3h24v24H-2z"/></g></symbol><symbol id="icon-ic_settings"><g fill-rule="evenodd"><path d="M-2-2h24v24H-2z"/><path d="M17.43 10.98c.04-.32.07-.64.07-.98 0-.34-.03-.66-.07-.98l2.11-1.65c.19-.15.24-.42.12-.64l-2-3.46c-.12-.22-.39-.3-.61-.22l-2.49 1c-.52-.4-1.08-.73-1.69-.98L12.49.42A.488.488 0 0 0 12 0H8c-.25 0-.46.18-.49.42l-.38 2.65c-.61.25-1.17.59-1.69.98l-2.49-1c-.23-.09-.49 0-.61.22l-2 3.46c-.13.22-.07.49.12.64l2.11 1.65c-.04.32-.07.65-.07.98 0 .33.03.66.07.98L.46 12.63c-.19.15-.24.42-.12.64l2 3.46c.12.22.39.3.61.22l2.49-1c.52.4 1.08.73 1.69.98l.38 2.65c.03.24.24.42.49.42h4c.25 0 .46-.18.49-.42l.38-2.65c.61-.25 1.17-.59 1.69-.98l2.49 1c.23.09.49 0 .61-.22l2-3.46c.12-.22.07-.49-.12-.64l-2.11-1.65zM10 13.5c-1.93 0-3.5-1.57-3.5-3.5S8.07 6.5 10 6.5s3.5 1.57 3.5 3.5-1.57 3.5-3.5 3.5z"/></g></symbol></svg>