<?xml version="1.0" encoding="UTF-8"?>
<svg width="53px" height="53px" viewBox="0 0 53 53" version="1.1" xmlns="http://www.w3.org/2000/svg" xmlns:xlink="http://www.w3.org/1999/xlink">
    <!-- Generator: Sketch 52.5 (67469) - http://www.bohemiancoding.com/sketch -->
    <title>avatar_green</title>
    <desc>Created with Sketch.</desc>
    <g id="Symbols" stroke="none" stroke-width="1" fill="none" fill-rule="evenodd">
        <g id="chat_inactive" transform="translate(-20.000000, 0.000000)" fill="#333333" fill-rule="nonzero">
            <g id="avatar_green">
                <g transform="translate(20.000000, 0.000000)">
                    <path d="M26.5,53 C10.8163265,53 0,41.1369108 0,26.5054071 C0,11.8630892 11.8655102,0 26.5,0 C41.139898,0 53,11.8630892 53,26.5 C53,41.1369108 42.1836735,53 26.5,53 Z M26.4973626,4 C14.0697456,4 4,13.963819 4,26.2542679 C4,32.0030263 6.22072442,37.2249021 9.83929199,41.173913 C13.0991677,39.614132 11.90177,40.9130801 16.1638729,39.1759326 C20.5261986,37.4022685 21.560075,36.781486 21.560075,36.781486 L21.6022741,32.6916253 C21.6022741,32.6916253 19.9670613,31.4657104 19.4659477,27.6158159 C18.442621,27.9079488 18.1050287,26.436851 18.0417302,25.503069 C17.9889814,24.600587 17.4509436,21.7783744 18.6958153,22.0339907 C18.442621,20.1507767 18.2580002,18.4553625 18.3476732,17.5528805 C18.6588911,14.3968017 21.7605205,11.0946564 26.5342867,10.8546901 C32.1520338,11.0946564 34.3780331,14.391585 34.689251,17.5528805 C34.7789239,18.4553625 34.5784785,20.1559934 34.3252843,22.0339907 C35.5701559,21.783591 35.0321182,24.600587 34.9688196,25.503069 C34.9160708,26.436851 34.5679287,27.9027322 33.5498769,27.6105993 C33.0382136,31.4604937 31.4030008,32.6759753 31.4030008,32.6759753 L31.439925,36.7449694 C31.439925,36.7449694 32.4738014,37.3188019 36.8361271,39.0976827 C41.09823,40.8348302 39.9008323,39.614132 43.160708,41.173913 C46.7792756,37.2249021 49,32.0030263 49,26.2542679 C49,13.963819 38.9249795,4 26.4973626,4 Z" id="Shape"></path>
                </g>
            </g>
        </g>
    </g>
</svg>