<?xml version="1.0" encoding="UTF-8"?>
<svg width="38px" height="38px" viewBox="0 0 38 38" version="1.1" xmlns="http://www.w3.org/2000/svg" xmlns:xlink="http://www.w3.org/1999/xlink">
    <!-- Generator: Sketch 52.5 (67469) - http://www.bohemiancoding.com/sketch -->
    <title>Shape</title>
    <desc>Created with Sketch.</desc>
    <g id="Symbols" stroke="none" stroke-width="1" fill="none" fill-rule="evenodd">
        <g id="speaker_bot" transform="translate(-9.000000, -1.000000)" fill="none" fill-rule="nonzero">
            <g transform="translate(0.000000, 1.000000)" id="Shape">
                <path d="M28,38 C24.847551,38 21.8812245,37.2283673 19.2677551,35.8712245 L12.4859184,37.084898 L12.4626531,29.9269388 C10.2834694,26.8365306 9,23.067551 9,19 C9,8.50734694 17.5073469,0 28,0 C38.4965306,0 47,8.50734694 47,19 C47,29.4926531 38.4926531,38 28,38 Z M28.0019064,3 C19.1640653,3 12,10.1611058 12,19 C12,22.5958055 13.18575,25.9132507 15.1836054,28.5824595 L15.1836054,33.5815062 L19.2784463,32.4108675 C21.7872036,34.0467112 24.780174,35 27.9980936,35 C36.8359347,35 44,27.8388942 44,19 C44,10.1611058 36.8397474,3 28.0019064,3 Z M39.779282,24 L30.6824745,24 L30.6824745,22.2447123 L25.2048271,22.2447123 L25.2048271,24 L16.2253978,24 C15.2550717,19.998408 17.7317509,16.4569024 17.7317509,16.4569024 C18.5846988,15.0341142 19.9814989,13.9283602 21.656094,13.1396407 L21.656094,11.256766 C20.76402,10.9745281 20.1106149,10.1742097 20.1106149,9.19604276 C20.1106149,7.9820332 21.1044167,7 22.3329748,7 C23.5615328,7 24.5592472,7.9820332 24.5592472,9.19604276 C24.5592472,10.1742097 23.9019295,10.9745281 23.0098555,11.256766 L23.0098555,12.5944962 C26.1321145,11.527405 29.8843031,11.4848761 33.0182999,12.5171708 L33.0182999,11.256766 C32.1262259,10.9745281 31.4728208,10.1742097 31.4728208,9.19604276 C31.4728208,7.9820332 32.4666226,7 33.6951807,7 C34.9237387,7 35.9175405,7.9820332 35.9175405,9.19604276 C35.9175405,10.1742097 35.2602228,10.9745281 34.3720614,11.256766 L34.3720614,13.0545827 C36.031006,13.8317034 37.4434566,14.9335911 38.3237928,16.4569024 C38.3198802,16.4569024 40.7261325,20.0022743 39.779282,24 Z M23,16 C21.8943662,16 21,16.8935796 21,17.998241 C21,19.1029024 21.8978873,20 23,20 C24.1056338,20 25,19.1064204 25,17.998241 C25,16.8935796 24.1056338,16 23,16 Z M33,16 C31.8943662,16 31,16.8935796 31,17.998241 C31,19.1029024 31.8978873,20 33,20 C34.1056338,20 35,19.1064204 35,17.998241 C35,16.8935796 34.1056338,16 33,16 Z M37.6596077,27.9963702 C37.6596077,27.9963702 34.2074293,31.9600726 28.0171845,32 C21.8307585,31.9600726 18.3747613,27.9963702 18.3747613,27.9963702 C17.7675751,27.3393829 17.3245964,26.6642468 17,26 L39,26 C38.6830411,26.6642468 38.2515188,27.3393829 37.6596077,27.9963702 Z"></path>
            </g>
        </g>
    </g>
</svg>
